# xmcd
#
# Track frame offsets:
#	180
#	35224
#	63374
#	91117
#	123938
#	150121
#	184343
#	204515
#	229580
#
# Disc length: 3418 seconds
#
# Revision: 1
# Processed by: cddbd v1.5.2PL0 Copyright (c) Steve Scherf et al.
# Submitted via: CDmax 2.0
#
DISCID=6b0d5809
DTITLE=Eric Clapton - She's Gone (disc1)
DYEAR=1998
DGENRE=Blues
TTITLE0=My Father's Eyes
TTITLE1=Pilgrim
TTITLE2=One Chance
TTITLE3=River of Tears
TTITLE4=Going Down Slow
TTITLE5=She's Gone
TTITLE6=Tears in Heaven
TTITLE7=Layla
TTITLE8=Change the World
EXTD=Eric Clapton\t\tvocals, guitar\nAndy Fairweather Low\tguitar\nNathan Eas
EXTD=t\t\tbass\nAlan Darby\t\tguitar\nTim Carmon\t\tkeyboards\nRicky Lawson\t
EXTD=\tdrums\nKatie Kissoon\t\tvocals\nChyna\t\t\tvocals\nCharlean Hines\t\tv
EXTD=ocals\n\nOrchestra\n\nRecorded live at Madison Square Garden, New York o
EXTD=n April 19th, 1998
EXTT0=
EXTT1=
EXTT2=
EXTT3=
EXTT4=
EXTT5=
EXTT6=
EXTT7=
EXTT8=
PLAYORDER=
